<svg xmlns="http://www.w3.org/2000/svg" xmlns:xlink="http://www.w3.org/1999/xlink" xml:space="preserve" id="Layer_1" style="enable-background:new 0 0 50 50" version="1.1" viewBox="0 0 50 50"><style>.st0{fill:none}.st9{fill:#6bb5fb}.st19{fill:#384e85}.st20{fill:#2e4277}</style><pattern id="Unnamed_Pattern_11" width="32.252" height="32.252" patternUnits="userSpaceOnUse" style="overflow:visible" viewBox="0 -32.252 32.252 32.252"><path d="M0-32.252h32.252V0H0z" class="st0"/><path d="M0-32.252h32.252V0H0z" style="fill:#aabafd"/></pattern><pattern id="Unnamed_Pattern_12" width="32.252" height="32.252" patternUnits="userSpaceOnUse" style="overflow:visible" viewBox="0 -32.252 32.252 32.252"><path d="M0-32.252h32.252V0H0z" class="st0"/><path d="M0-32.252h32.252V0H0z" style="fill:#b7c5fd"/></pattern><pattern id="Unnamed_Pattern_17" width="32.252" height="32.252" patternUnits="userSpaceOnUse" style="overflow:visible" viewBox="0 -32.252 32.252 32.252"><path d="M0-32.252h32.252V0H0z" class="st0"/><path d="M0-32.252h32.252V0H0z" style="fill:#1b2a4f"/></pattern><pattern id="Unnamed_Pattern_8" width="32.252" height="32.252" patternUnits="userSpaceOnUse" style="overflow:visible" viewBox="0 -32.252 32.252 32.252"><path d="M0-32.252h32.252V0H0z" class="st0"/><path d="M0-32.252h32.252V0H0z" style="fill:#798ffe"/></pattern><path d="m41.138 34.525-.01 5.139c-.002.443-.293.886-.876 1.224L27.174 48.49c-1.173.681-3.08.682-4.26 0l-13.163-7.6c-.594-.343-.89-.793-.89-1.242l.012-5.136c0 .448 14.052 8.84 14.052 8.84 1.18.68 3.087.68 4.26 0 0 0 13.952-8.382 13.953-8.826z" class="st20"/><path d="m21.762 43.915-10.9-6.294a.423.423 0 0 0-.634.366v1.7c0 .302.16.581.422.732l10.901 6.294a.423.423 0 0 0 .634-.366v-1.7a.845.845 0 0 0-.423-.732z" class="st19"/><pattern xlink:href="#Unnamed_Pattern_8" id="SVGID_1_" patternTransform="matrix(-.01188 0 0 .01188 -8135.607 -7787.854)"/><path d="M27.836 44.352a.55.55 0 0 0-.25.433l.005 1.764c0 .16.113.223.252.144a.55.55 0 0 0 .25-.433l-.005-1.765c0-.16-.113-.223-.252-.143z" style="fill:url(#SVGID_1_)"/><pattern xlink:href="#Unnamed_Pattern_11" id="SVGID_2_" patternTransform="matrix(-.01188 0 0 .01188 -8135.607 -7788.72)"/><path d="m27.975 46.198-.005-1.765a.222.222 0 0 0-.028-.116c.086-.003.145.062.146.178l.005 1.765a.55.55 0 0 1-.25.433c-.097.056-.182.04-.224-.028a.234.234 0 0 0 .106-.034.55.55 0 0 0 .25-.433z" style="fill:url(#SVGID_2_)"/><pattern xlink:href="#Unnamed_Pattern_8" id="SVGID_3_" patternTransform="matrix(-.01188 0 0 .01188 -8135.573 -7787.596)"/><path d="M38.602 38.095a.55.55 0 0 0-.25.433l.005 1.764c0 .16.113.224.252.144a.55.55 0 0 0 .25-.433l-.005-1.765c0-.159-.113-.223-.252-.143z" style="fill:url(#SVGID_3_)"/><pattern xlink:href="#Unnamed_Pattern_11" id="SVGID_4_" patternTransform="matrix(-.01188 0 0 .01188 -8135.573 -7788.753)"/><path d="m38.74 39.94-.004-1.764a.223.223 0 0 0-.028-.115c.086-.004.145.061.146.177l.005 1.765a.55.55 0 0 1-.25.433c-.098.056-.182.04-.224-.028a.234.234 0 0 0 .106-.034.55.55 0 0 0 .25-.433z" style="fill:url(#SVGID_4_)"/><pattern xlink:href="#Unnamed_Pattern_8" id="SVGID_5_" patternTransform="matrix(-.01188 0 0 .01188 -8137.11 -7786.702)"/><path d="M37.064 38.989a.55.55 0 0 0-.25.433l.005 1.764c0 .16.113.224.252.144a.55.55 0 0 0 .25-.433l-.005-1.765c0-.16-.113-.223-.252-.143z" style="fill:url(#SVGID_5_)"/><pattern xlink:href="#Unnamed_Pattern_11" id="SVGID_6_" patternTransform="matrix(-.01188 0 0 .01188 -8137.11 -7787.86)"/><path d="m37.203 40.835-.005-1.765a.223.223 0 0 0-.028-.115c.086-.004.145.061.146.177l.005 1.765a.55.55 0 0 1-.25.433c-.098.056-.182.04-.224-.028a.234.234 0 0 0 .106-.034.551.551 0 0 0 .25-.433z" style="fill:url(#SVGID_6_)"/><pattern xlink:href="#Unnamed_Pattern_8" id="SVGID_7_" patternTransform="matrix(-.01188 0 0 .01188 -8138.649 -7785.808)"/><path d="M35.526 39.882a.55.55 0 0 0-.25.433l.005 1.765c0 .16.113.223.252.143a.55.55 0 0 0 .25-.433l-.005-1.764c0-.16-.113-.223-.252-.144z" style="fill:url(#SVGID_7_)"/><pattern xlink:href="#Unnamed_Pattern_11" id="SVGID_8_" patternTransform="matrix(-.01188 0 0 .01188 -8138.649 -7786.965)"/><path d="m35.665 41.729-.005-1.765a.222.222 0 0 0-.028-.116c.086-.003.145.062.146.178l.005 1.764a.55.55 0 0 1-.25.433c-.098.057-.182.042-.224-.027a.234.234 0 0 0 .106-.035.55.55 0 0 0 .25-.432z" style="fill:url(#SVGID_8_)"/><pattern xlink:href="#Unnamed_Pattern_8" id="SVGID_9_" patternTransform="matrix(-.01188 0 0 .01188 -8140.187 -7784.915)"/><path d="M33.988 40.776a.55.55 0 0 0-.25.433l.005 1.765c0 .159.113.223.252.143a.55.55 0 0 0 .25-.433l-.005-1.764c0-.16-.113-.224-.252-.144z" style="fill:url(#SVGID_9_)"/><pattern xlink:href="#Unnamed_Pattern_11" id="SVGID_10_" patternTransform="matrix(-.01188 0 0 .01188 -8140.187 -7786.072)"/><path d="m34.127 42.622-.005-1.764a.222.222 0 0 0-.028-.116c.086-.004.145.062.146.178l.005 1.764a.55.55 0 0 1-.25.433c-.098.056-.182.041-.224-.028a.234.234 0 0 0 .106-.034.55.55 0 0 0 .25-.433z" style="fill:url(#SVGID_10_)"/><pattern xlink:href="#Unnamed_Pattern_8" id="SVGID_11_" patternTransform="matrix(-.01188 0 0 .01188 -8141.725 -7784.02)"/><path d="M32.45 41.67a.55.55 0 0 0-.25.433l.005 1.765c0 .159.113.223.252.143a.55.55 0 0 0 .25-.433l-.005-1.765c0-.159-.113-.223-.252-.143z" style="fill:url(#SVGID_11_)"/><pattern xlink:href="#Unnamed_Pattern_11" id="SVGID_12_" patternTransform="matrix(-.01188 0 0 .01188 -8141.725 -7785.178)"/><path d="m32.589 43.516-.005-1.764a.222.222 0 0 0-.028-.116c.086-.004.145.062.146.177l.005 1.765a.55.55 0 0 1-.25.433c-.098.056-.182.041-.224-.028a.234.234 0 0 0 .106-.034.55.55 0 0 0 .25-.433z" style="fill:url(#SVGID_12_)"/><pattern xlink:href="#Unnamed_Pattern_8" id="SVGID_13_" patternTransform="matrix(-.01188 0 0 .01188 -8143.263 -7783.127)"/><path d="M30.912 42.564a.55.55 0 0 0-.25.433l.005 1.765c0 .159.113.223.252.143a.55.55 0 0 0 .25-.433l-.005-1.765c0-.159-.113-.223-.252-.143z" style="fill:url(#SVGID_13_)"/><pattern xlink:href="#Unnamed_Pattern_11" id="SVGID_14_" patternTransform="matrix(-.01188 0 0 .01188 -8143.263 -7784.284)"/><path d="m31.05 44.41-.004-1.765a.222.222 0 0 0-.028-.115c.086-.004.145.062.146.177l.005 1.765a.55.55 0 0 1-.25.433c-.098.056-.182.041-.224-.028a.234.234 0 0 0 .106-.034.55.55 0 0 0 .25-.433z" style="fill:url(#SVGID_14_)"/><pattern xlink:href="#Unnamed_Pattern_8" id="SVGID_15_" patternTransform="matrix(-.01188 0 0 .01188 -8144.8 -7782.233)"/><path d="M29.374 43.458a.55.55 0 0 0-.25.433l.005 1.764c0 .16.113.224.252.144a.55.55 0 0 0 .25-.433l-.005-1.765c0-.159-.113-.223-.252-.143z" style="fill:url(#SVGID_15_)"/><pattern xlink:href="#Unnamed_Pattern_11" id="SVGID_16_" patternTransform="matrix(-.01188 0 0 .01188 -8144.8 -7783.39)"/><path d="m29.513 45.304-.005-1.765a.222.222 0 0 0-.028-.115c.086-.004.145.061.146.177l.005 1.765a.55.55 0 0 1-.25.433c-.097.056-.182.04-.224-.028a.234.234 0 0 0 .106-.034.55.55 0 0 0 .25-.433z" style="fill:url(#SVGID_16_)"/><path d="M40.25 33.283c1.18.681 1.186 1.786.013 2.467l-13.078 7.6c-1.173.682-3.08.682-4.26 0l-13.164-7.6c-1.18-.681-1.185-1.785-.013-2.467l13.079-7.6c1.172-.681 3.078-.681 4.258 0l13.164 7.6z" class="st19"/><path d="M35.134 33.971c.522.301.525.79.006 1.091l-9.16 5.323c-.518.302-1.361.302-1.883 0l-9.22-5.323c-.522-.301-.525-.79-.006-1.09l9.16-5.324c.518-.301 1.362-.301 1.884 0l9.22 5.323z" class="st20"/><pattern xlink:href="#Unnamed_Pattern_12" id="SVGID_17_" patternTransform="translate(-7612.173 -7469.592) scale(.05283)"/><path d="M11.572 39.06c.258.148.466.509.465.805 0 .297-.21.416-.468.267a1.026 1.026 0 0 1-.466-.806c.001-.297.21-.416.469-.267z" style="fill:url(#SVGID_17_)"/><pattern xlink:href="#Unnamed_Pattern_12" id="SVGID_18_" patternTransform="translate(-7612.173 -7469.592) scale(.05283)"/><path d="M13.076 39.928c.258.149.467.51.466.806-.001.296-.211.416-.469.267a1.026 1.026 0 0 1-.465-.807c0-.296.21-.415.468-.266z" style="fill:url(#SVGID_18_)"/><pattern xlink:href="#Unnamed_Pattern_12" id="SVGID_19_" patternTransform="translate(-7612.173 -7469.592) scale(.05283)"/><path d="M14.58 40.796c.259.15.467.51.466.806 0 .297-.21.416-.468.268a1.026 1.026 0 0 1-.466-.807c0-.296.21-.416.469-.267z" style="fill:url(#SVGID_19_)"/><path d="m20.824 44.3-3.489-2.015v1.321l3.489 2.015z" class="st9"/><pattern xlink:href="#Unnamed_Pattern_17" id="SVGID_20_" patternTransform="translate(-7629.471 -7494.014) scale(.05026)"/><path d="m40.352 28.488-.01 4.888c-.001.422-.279.844-.833 1.165l-12.441 7.23c-1.115.649-2.93.649-4.052 0l-12.522-7.23c-.565-.325-.847-.753-.846-1.18l.01-4.886c0 .426.282.853.846 1.178l12.522 7.23c1.123.649 2.937.649 4.052 0l12.442-7.23c.554-.322.831-.743.832-1.165z" style="fill:url(#SVGID_20_)"/><path d="m41.138 26.468-.01 5.138c-.002.444-.293.887-.876 1.225l-13.078 7.6c-1.173.682-3.08.682-4.26 0l-13.163-7.6c-.594-.342-.89-.792-.89-1.242l.012-5.135c0 .448 14.052 8.84 14.052 8.84 1.18.68 3.087.68 4.26-.001 0 0 13.952-8.382 13.953-8.825z" class="st20"/><path d="m21.762 35.857-10.9-6.293a.423.423 0 0 0-.634.366v1.7c0 .302.16.581.422.732l10.901 6.293a.423.423 0 0 0 .634-.366v-1.7a.845.845 0 0 0-.423-.732z" class="st19"/><pattern xlink:href="#Unnamed_Pattern_8" id="SVGID_21_" patternTransform="matrix(-.01188 0 0 .01188 -8135.607 -7795.912)"/><path d="M27.836 36.294a.55.55 0 0 0-.25.433l.005 1.765c0 .159.113.223.252.143a.55.55 0 0 0 .25-.433l-.005-1.764c0-.16-.113-.224-.252-.144z" style="fill:url(#SVGID_21_)"/><pattern xlink:href="#Unnamed_Pattern_11" id="SVGID_22_" patternTransform="matrix(-.01188 0 0 .01188 -8135.607 -7796.778)"/><path d="m27.975 38.14-.005-1.764a.222.222 0 0 0-.028-.116c.086-.004.145.062.146.178l.005 1.764a.55.55 0 0 1-.25.433c-.097.056-.182.041-.224-.028a.234.234 0 0 0 .106-.034.55.55 0 0 0 .25-.433z" style="fill:url(#SVGID_22_)"/><pattern xlink:href="#Unnamed_Pattern_8" id="SVGID_23_" patternTransform="matrix(-.01188 0 0 .01188 -8135.573 -7795.653)"/><path d="M38.602 30.038a.55.55 0 0 0-.25.432l.005 1.765c0 .16.113.223.252.143a.55.55 0 0 0 .25-.432l-.005-1.765c0-.16-.113-.223-.252-.143z" style="fill:url(#SVGID_23_)"/><pattern xlink:href="#Unnamed_Pattern_11" id="SVGID_24_" patternTransform="matrix(-.01188 0 0 .01188 -8135.573 -7796.81)"/><path d="m38.74 31.884-.004-1.765a.223.223 0 0 0-.028-.116c.086-.003.145.062.146.178l.005 1.765a.55.55 0 0 1-.25.432c-.098.057-.182.042-.224-.027a.234.234 0 0 0 .106-.034.55.55 0 0 0 .25-.433z" style="fill:url(#SVGID_24_)"/><pattern xlink:href="#Unnamed_Pattern_8" id="SVGID_25_" patternTransform="matrix(-.01188 0 0 .01188 -8137.11 -7794.76)"/><path d="M37.064 30.931a.55.55 0 0 0-.25.433l.005 1.765c0 .16.113.223.252.143a.55.55 0 0 0 .25-.433l-.005-1.764c0-.16-.113-.224-.252-.144z" style="fill:url(#SVGID_25_)"/><pattern xlink:href="#Unnamed_Pattern_11" id="SVGID_26_" patternTransform="matrix(-.01188 0 0 .01188 -8137.11 -7795.917)"/><path d="m37.203 32.777-.005-1.764a.223.223 0 0 0-.028-.116c.086-.003.145.062.146.178l.005 1.764a.55.55 0 0 1-.25.433c-.098.056-.182.041-.224-.027a.234.234 0 0 0 .106-.035.55.55 0 0 0 .25-.433z" style="fill:url(#SVGID_26_)"/><pattern xlink:href="#Unnamed_Pattern_8" id="SVGID_27_" patternTransform="matrix(-.01188 0 0 .01188 -8138.649 -7793.865)"/><path d="M35.526 31.825a.55.55 0 0 0-.25.433l.005 1.765c0 .159.113.223.252.143a.55.55 0 0 0 .25-.433l-.005-1.764c0-.16-.113-.224-.252-.144z" style="fill:url(#SVGID_27_)"/><pattern xlink:href="#Unnamed_Pattern_11" id="SVGID_28_" patternTransform="matrix(-.01188 0 0 .01188 -8138.649 -7795.023)"/><path d="m35.665 33.671-.005-1.764a.222.222 0 0 0-.028-.116c.086-.004.145.062.146.178l.005 1.764a.55.55 0 0 1-.25.433c-.098.056-.182.041-.224-.028a.234.234 0 0 0 .106-.034.55.55 0 0 0 .25-.433z" style="fill:url(#SVGID_28_)"/><pattern xlink:href="#Unnamed_Pattern_8" id="SVGID_29_" patternTransform="matrix(-.01188 0 0 .01188 -8140.187 -7792.972)"/><path d="M33.988 32.719a.55.55 0 0 0-.25.433l.005 1.765c0 .159.113.223.252.143a.55.55 0 0 0 .25-.433l-.005-1.765c0-.159-.113-.223-.252-.143z" style="fill:url(#SVGID_29_)"/><pattern xlink:href="#Unnamed_Pattern_11" id="SVGID_30_" patternTransform="matrix(-.01188 0 0 .01188 -8140.187 -7794.129)"/><path d="m34.127 34.565-.005-1.765a.222.222 0 0 0-.028-.115c.086-.004.145.062.146.177l.005 1.765a.55.55 0 0 1-.25.433c-.098.056-.182.041-.224-.028a.234.234 0 0 0 .106-.034.55.55 0 0 0 .25-.433z" style="fill:url(#SVGID_30_)"/><pattern xlink:href="#Unnamed_Pattern_8" id="SVGID_31_" patternTransform="matrix(-.01188 0 0 .01188 -8141.725 -7792.078)"/><path d="M32.45 33.613a.55.55 0 0 0-.25.433l.005 1.764c0 .16.113.224.252.144s.25-.274.25-.433l-.005-1.765c0-.159-.113-.223-.252-.143z" style="fill:url(#SVGID_31_)"/><pattern xlink:href="#Unnamed_Pattern_11" id="SVGID_32_" patternTransform="matrix(-.01188 0 0 .01188 -8141.725 -7793.235)"/><path d="m32.589 35.459-.005-1.765a.222.222 0 0 0-.028-.115c.086-.004.145.061.146.177l.005 1.765a.55.55 0 0 1-.25.433c-.098.056-.182.04-.224-.028a.234.234 0 0 0 .106-.034.55.55 0 0 0 .25-.433z" style="fill:url(#SVGID_32_)"/><pattern xlink:href="#Unnamed_Pattern_8" id="SVGID_33_" patternTransform="matrix(-.01188 0 0 .01188 -8143.263 -7791.184)"/><path d="M30.912 34.507a.55.55 0 0 0-.25.433l.005 1.764c0 .16.113.224.252.144a.55.55 0 0 0 .25-.433l-.005-1.765c0-.16-.113-.223-.252-.143z" style="fill:url(#SVGID_33_)"/><pattern xlink:href="#Unnamed_Pattern_11" id="SVGID_34_" patternTransform="matrix(-.01188 0 0 .01188 -8143.263 -7792.341)"/><path d="m31.05 36.353-.004-1.765a.222.222 0 0 0-.028-.115c.086-.004.145.061.146.177l.005 1.765a.55.55 0 0 1-.25.433c-.098.056-.182.04-.224-.028a.234.234 0 0 0 .106-.034.55.55 0 0 0 .25-.433z" style="fill:url(#SVGID_34_)"/><pattern xlink:href="#Unnamed_Pattern_8" id="SVGID_35_" patternTransform="matrix(-.01188 0 0 .01188 -8144.8 -7790.29)"/><path d="M29.374 35.4a.55.55 0 0 0-.25.433l.005 1.765c0 .16.113.223.252.143a.55.55 0 0 0 .25-.432l-.005-1.765c0-.16-.113-.223-.252-.143z" style="fill:url(#SVGID_35_)"/><pattern xlink:href="#Unnamed_Pattern_11" id="SVGID_36_" patternTransform="matrix(-.01188 0 0 .01188 -8144.8 -7791.447)"/><path d="m29.513 37.247-.005-1.765a.222.222 0 0 0-.028-.116c.086-.003.145.062.146.178l.005 1.765a.55.55 0 0 1-.25.432c-.097.057-.182.042-.224-.027a.234.234 0 0 0 .106-.035.551.551 0 0 0 .25-.432z" style="fill:url(#SVGID_36_)"/><path d="M40.25 25.226c1.18.681 1.186 1.785.013 2.467l-13.078 7.6c-1.173.681-3.08.682-4.26 0l-13.164-7.6c-1.18-.681-1.185-1.786-.013-2.467l13.079-7.6c1.172-.682 3.078-.682 4.258 0l13.164 7.6z" class="st19"/><path d="M35.134 25.914c.522.301.525.79.006 1.09l-9.16 5.324c-.518.301-1.361.301-1.883 0l-9.22-5.323c-.522-.301-.525-.79-.006-1.091l9.16-5.323c.518-.302 1.362-.302 1.884 0l9.22 5.323z" class="st20"/><pattern xlink:href="#Unnamed_Pattern_12" id="SVGID_37_" patternTransform="translate(-7612.173 -7477.65) scale(.05283)"/><path d="M11.572 31.002c.258.149.466.51.465.806 0 .296-.21.416-.468.267a1.026 1.026 0 0 1-.466-.806c.001-.297.21-.416.469-.267z" style="fill:url(#SVGID_37_)"/><pattern xlink:href="#Unnamed_Pattern_12" id="SVGID_38_" patternTransform="translate(-7612.173 -7477.65) scale(.05283)"/><path d="M13.076 31.87c.258.15.467.51.466.806-.001.297-.211.417-.469.268a1.026 1.026 0 0 1-.465-.807c0-.296.21-.416.468-.267z" style="fill:url(#SVGID_38_)"/><pattern xlink:href="#Unnamed_Pattern_12" id="SVGID_39_" patternTransform="translate(-7612.173 -7477.65) scale(.05283)"/><path d="M14.58 32.739c.259.149.467.51.466.806 0 .297-.21.416-.468.267a1.026 1.026 0 0 1-.466-.806c0-.297.21-.416.469-.267z" style="fill:url(#SVGID_39_)"/><path d="m20.824 36.242-3.489-2.014v1.321l3.489 2.015z" class="st9"/><pattern xlink:href="#Unnamed_Pattern_17" id="SVGID_40_" patternTransform="translate(-7629.471 -7502.071) scale(.05026)"/><path d="m40.352 20.43-.01 4.889c-.001.422-.279.843-.833 1.165l-12.441 7.23c-1.115.648-2.93.649-4.052 0l-12.522-7.23c-.565-.326-.847-.753-.846-1.181l.01-4.886c0 .427.282.854.846 1.179l12.522 7.23c1.123.648 2.937.648 4.052 0l12.442-7.23c.554-.322.831-.743.832-1.165z" style="fill:url(#SVGID_40_)"/><path d="m41.138 18.41-.01 5.14c-.002.443-.293.886-.876 1.224l-13.078 7.6c-1.173.682-3.08.682-4.26 0l-13.163-7.6c-.594-.343-.89-.792-.89-1.242l.012-5.135c0 .448 14.052 8.84 14.052 8.84 1.18.68 3.087.68 4.26-.001 0 0 13.952-8.382 13.953-8.825z" class="st20"/><path d="m21.762 27.8-10.9-6.294a.423.423 0 0 0-.634.366v1.7c0 .303.16.582.422.733l10.901 6.293a.423.423 0 0 0 .634-.366v-1.7a.845.845 0 0 0-.423-.732z" class="st19"/><pattern xlink:href="#Unnamed_Pattern_8" id="SVGID_41_" patternTransform="matrix(-.01188 0 0 .01188 -8135.607 -7803.97)"/><path d="M27.836 28.237a.55.55 0 0 0-.25.433l.005 1.765c0 .159.113.223.252.143s.25-.274.25-.433l-.005-1.765c0-.159-.113-.223-.252-.143z" style="fill:url(#SVGID_41_)"/><pattern xlink:href="#Unnamed_Pattern_11" id="SVGID_42_" patternTransform="matrix(-.01188 0 0 .01188 -8135.607 -7804.835)"/><path d="m27.975 30.083-.005-1.765a.222.222 0 0 0-.028-.115c.086-.004.145.062.146.177l.005 1.765a.55.55 0 0 1-.25.433c-.097.056-.182.041-.224-.028a.234.234 0 0 0 .106-.034.55.55 0 0 0 .25-.433z" style="fill:url(#SVGID_42_)"/><pattern xlink:href="#Unnamed_Pattern_8" id="SVGID_43_" patternTransform="matrix(-.01188 0 0 .01188 -8135.573 -7803.71)"/><path d="M38.602 21.98a.55.55 0 0 0-.25.433l.005 1.765c0 .159.113.223.252.143s.25-.274.25-.433l-.005-1.764c0-.16-.113-.224-.252-.144z" style="fill:url(#SVGID_43_)"/><pattern xlink:href="#Unnamed_Pattern_11" id="SVGID_44_" patternTransform="matrix(-.01188 0 0 .01188 -8135.573 -7804.868)"/><path d="m38.74 23.826-.004-1.764a.223.223 0 0 0-.028-.116c.086-.004.145.062.146.178l.005 1.764a.55.55 0 0 1-.25.433c-.098.056-.182.041-.224-.028a.234.234 0 0 0 .106-.034.55.55 0 0 0 .25-.433z" style="fill:url(#SVGID_44_)"/><pattern xlink:href="#Unnamed_Pattern_8" id="SVGID_45_" patternTransform="matrix(-.01188 0 0 .01188 -8137.11 -7802.816)"/><path d="M37.064 22.874a.55.55 0 0 0-.25.433l.005 1.765c0 .159.113.223.252.143s.25-.274.25-.433l-.005-1.765c0-.159-.113-.223-.252-.143z" style="fill:url(#SVGID_45_)"/><pattern xlink:href="#Unnamed_Pattern_11" id="SVGID_46_" patternTransform="matrix(-.01188 0 0 .01188 -8137.11 -7803.974)"/><path d="m37.203 24.72-.005-1.764a.223.223 0 0 0-.028-.116c.086-.004.145.062.146.177l.005 1.765a.55.55 0 0 1-.25.433c-.098.056-.182.041-.224-.028a.234.234 0 0 0 .106-.034.55.55 0 0 0 .25-.433z" style="fill:url(#SVGID_46_)"/><pattern xlink:href="#Unnamed_Pattern_8" id="SVGID_47_" patternTransform="matrix(-.01188 0 0 .01188 -8138.649 -7801.923)"/><path d="M35.526 23.768a.55.55 0 0 0-.25.433l.005 1.764c0 .16.113.224.252.144s.25-.274.25-.433l-.005-1.765c0-.159-.113-.223-.252-.143z" style="fill:url(#SVGID_47_)"/><pattern xlink:href="#Unnamed_Pattern_11" id="SVGID_48_" patternTransform="matrix(-.01188 0 0 .01188 -8138.649 -7803.08)"/><path d="m35.665 25.614-.005-1.765a.222.222 0 0 0-.028-.115c.086-.004.145.062.146.177l.005 1.765a.55.55 0 0 1-.25.433c-.098.056-.182.041-.224-.028a.234.234 0 0 0 .106-.034.55.55 0 0 0 .25-.433z" style="fill:url(#SVGID_48_)"/><pattern xlink:href="#Unnamed_Pattern_8" id="SVGID_49_" patternTransform="matrix(-.01188 0 0 .01188 -8140.187 -7801.029)"/><path d="M33.988 24.662a.55.55 0 0 0-.25.433l.005 1.764c0 .16.113.224.252.144a.55.55 0 0 0 .25-.433l-.005-1.765c0-.159-.113-.223-.252-.143z" style="fill:url(#SVGID_49_)"/><pattern xlink:href="#Unnamed_Pattern_11" id="SVGID_50_" patternTransform="matrix(-.01188 0 0 .01188 -8140.187 -7802.186)"/><path d="m34.127 26.508-.005-1.765a.222.222 0 0 0-.028-.115c.086-.004.145.061.146.177l.005 1.765a.55.55 0 0 1-.25.433c-.098.056-.182.04-.224-.028a.234.234 0 0 0 .106-.034.55.55 0 0 0 .25-.433z" style="fill:url(#SVGID_50_)"/><pattern xlink:href="#Unnamed_Pattern_8" id="SVGID_51_" patternTransform="matrix(-.01188 0 0 .01188 -8141.725 -7800.135)"/><path d="M32.45 25.556a.55.55 0 0 0-.25.432l.005 1.765c0 .16.113.223.252.143s.25-.273.25-.432l-.005-1.765c0-.16-.113-.223-.252-.143z" style="fill:url(#SVGID_51_)"/><pattern xlink:href="#Unnamed_Pattern_11" id="SVGID_52_" patternTransform="matrix(-.01188 0 0 .01188 -8141.725 -7801.292)"/><path d="m32.589 27.402-.005-1.765a.222.222 0 0 0-.028-.116c.086-.003.145.062.146.178l.005 1.765a.55.55 0 0 1-.25.433c-.098.056-.182.04-.224-.028a.234.234 0 0 0 .106-.034.55.55 0 0 0 .25-.433z" style="fill:url(#SVGID_52_)"/><pattern xlink:href="#Unnamed_Pattern_8" id="SVGID_53_" patternTransform="matrix(-.01188 0 0 .01188 -8143.263 -7799.241)"/><path d="M30.912 26.45a.55.55 0 0 0-.25.432l.005 1.765c0 .16.113.223.252.143a.55.55 0 0 0 .25-.433l-.005-1.764c0-.16-.113-.224-.252-.144z" style="fill:url(#SVGID_53_)"/><pattern xlink:href="#Unnamed_Pattern_11" id="SVGID_54_" patternTransform="matrix(-.01188 0 0 .01188 -8143.263 -7800.398)"/><path d="m31.05 28.295-.004-1.764a.222.222 0 0 0-.028-.116c.086-.003.145.062.146.178l.005 1.764a.55.55 0 0 1-.25.433c-.098.056-.182.041-.224-.027a.234.234 0 0 0 .106-.035.55.55 0 0 0 .25-.433z" style="fill:url(#SVGID_54_)"/><pattern xlink:href="#Unnamed_Pattern_8" id="SVGID_55_" patternTransform="matrix(-.01188 0 0 .01188 -8144.8 -7798.348)"/><path d="M29.374 27.343a.55.55 0 0 0-.25.433l.005 1.765c0 .159.113.223.252.143a.55.55 0 0 0 .25-.433l-.005-1.764c0-.16-.113-.224-.252-.144z" style="fill:url(#SVGID_55_)"/><pattern xlink:href="#Unnamed_Pattern_11" id="SVGID_56_" patternTransform="matrix(-.01188 0 0 .01188 -8144.8 -7799.505)"/><path d="m29.513 29.19-.005-1.765a.222.222 0 0 0-.028-.116c.086-.004.145.062.146.178l.005 1.764a.55.55 0 0 1-.25.433c-.097.056-.182.041-.224-.028a.234.234 0 0 0 .106-.034.55.55 0 0 0 .25-.433z" style="fill:url(#SVGID_56_)"/><path d="M40.25 17.169c1.18.68 1.186 1.785.013 2.466l-13.078 7.6c-1.173.682-3.08.682-4.26.001l-13.164-7.6c-1.18-.682-1.185-1.786-.013-2.467l13.079-7.6c1.172-.682 3.078-.682 4.258 0l13.164 7.6z" class="st19"/><path d="M35.134 17.856c.522.302.525.79.006 1.092l-9.16 5.323c-.518.301-1.361.301-1.883 0l-9.22-5.323c-.522-.302-.525-.79-.006-1.091l9.16-5.324c.518-.3 1.362-.3 1.884 0l9.22 5.323z" class="st20"/><pattern xlink:href="#Unnamed_Pattern_12" id="SVGID_57_" patternTransform="translate(-7612.173 -7485.707) scale(.05283)"/><path d="M11.572 22.945c.258.149.466.509.465.806 0 .296-.21.416-.468.267a1.026 1.026 0 0 1-.466-.807c.001-.296.21-.415.469-.266z" style="fill:url(#SVGID_57_)"/><pattern xlink:href="#Unnamed_Pattern_12" id="SVGID_58_" patternTransform="translate(-7612.173 -7485.707) scale(.05283)"/><path d="M13.076 23.813c.258.149.467.51.466.806-.001.297-.211.416-.469.267a1.026 1.026 0 0 1-.465-.806c0-.297.21-.416.468-.267z" style="fill:url(#SVGID_58_)"/><pattern xlink:href="#Unnamed_Pattern_12" id="SVGID_59_" patternTransform="translate(-7612.173 -7485.707) scale(.05283)"/><path d="M14.58 24.682c.259.149.467.51.466.806 0 .296-.21.416-.468.267a1.026 1.026 0 0 1-.466-.807c0-.296.21-.415.469-.266z" style="fill:url(#SVGID_59_)"/><path d="m20.824 28.185-3.489-2.015v1.322l3.489 2.014z" class="st9"/><pattern xlink:href="#Unnamed_Pattern_17" id="SVGID_60_" patternTransform="translate(-7629.471 -7510.128) scale(.05026)"/><path d="m40.352 12.374-.01 4.888c-.001.422-.279.843-.833 1.165l-12.441 7.23c-1.115.648-2.93.648-4.052 0l-12.522-7.23c-.565-.326-.847-.754-.846-1.181l.01-4.886c0 .426.282.853.846 1.179l12.522 7.23c1.123.648 2.937.648 4.052 0l12.442-7.23c.554-.322.831-.744.832-1.165z" style="fill:url(#SVGID_60_)"/><path d="m41.138 10.354-.01 5.138c-.002.444-.293.886-.876 1.224l-13.078 7.601c-1.173.681-3.08.682-4.26 0l-13.163-7.6c-.594-.343-.89-.792-.89-1.242l.012-5.136c0 .448 14.052 8.84 14.052 8.84 1.18.681 3.087.681 4.26 0 0 0 13.952-8.382 13.953-8.825z" class="st20"/><path d="m21.762 19.743-10.9-6.294a.423.423 0 0 0-.634.366v1.7c0 .302.16.581.422.732l10.901 6.294a.423.423 0 0 0 .634-.366v-1.7a.845.845 0 0 0-.423-.732z" class="st19"/><pattern xlink:href="#Unnamed_Pattern_8" id="SVGID_61_" patternTransform="matrix(-.01188 0 0 .01188 -8135.607 -7812.026)"/><path d="M27.836 20.18a.55.55 0 0 0-.25.433l.005 1.764c0 .16.113.224.252.144s.25-.274.25-.433l-.005-1.765c0-.159-.113-.223-.252-.143z" style="fill:url(#SVGID_61_)"/><pattern xlink:href="#Unnamed_Pattern_11" id="SVGID_62_" patternTransform="matrix(-.01188 0 0 .01188 -8135.607 -7812.893)"/><path d="m27.975 22.026-.005-1.765a.222.222 0 0 0-.028-.115c.086-.004.145.061.146.177l.005 1.765a.55.55 0 0 1-.25.433c-.097.056-.182.04-.224-.028a.234.234 0 0 0 .106-.034.55.55 0 0 0 .25-.433z" style="fill:url(#SVGID_62_)"/><pattern xlink:href="#Unnamed_Pattern_8" id="SVGID_63_" patternTransform="matrix(-.01188 0 0 .01188 -8135.573 -7811.768)"/><path d="M38.602 13.923a.55.55 0 0 0-.25.433l.005 1.765c0 .159.113.223.252.143a.55.55 0 0 0 .25-.433l-.005-1.765c0-.159-.113-.223-.252-.143z" style="fill:url(#SVGID_63_)"/><pattern xlink:href="#Unnamed_Pattern_11" id="SVGID_64_" patternTransform="matrix(-.01188 0 0 .01188 -8135.573 -7812.925)"/><path d="m38.74 15.77-.004-1.766a.223.223 0 0 0-.028-.115c.086-.004.145.062.146.177l.005 1.765a.55.55 0 0 1-.25.433c-.098.056-.182.041-.224-.028a.234.234 0 0 0 .106-.034.55.55 0 0 0 .25-.433z" style="fill:url(#SVGID_64_)"/><pattern xlink:href="#Unnamed_Pattern_8" id="SVGID_65_" patternTransform="matrix(-.01188 0 0 .01188 -8137.11 -7810.874)"/><path d="M37.064 14.817a.55.55 0 0 0-.25.433l.005 1.764c0 .16.113.224.252.144s.25-.274.25-.433l-.005-1.765c0-.159-.113-.223-.252-.143z" style="fill:url(#SVGID_65_)"/><pattern xlink:href="#Unnamed_Pattern_11" id="SVGID_66_" patternTransform="matrix(-.01188 0 0 .01188 -8137.11 -7812.031)"/><path d="m37.203 16.663-.005-1.765a.223.223 0 0 0-.028-.115c.086-.004.145.061.146.177l.005 1.765a.55.55 0 0 1-.25.433c-.098.056-.182.04-.224-.028a.234.234 0 0 0 .106-.034.551.551 0 0 0 .25-.433z" style="fill:url(#SVGID_66_)"/><pattern xlink:href="#Unnamed_Pattern_8" id="SVGID_67_" patternTransform="matrix(-.01188 0 0 .01188 -8138.649 -7809.98)"/><path d="M35.526 15.71a.55.55 0 0 0-.25.434l.005 1.764c0 .16.113.224.252.144s.25-.274.25-.433l-.005-1.765c0-.16-.113-.223-.252-.143z" style="fill:url(#SVGID_67_)"/><pattern xlink:href="#Unnamed_Pattern_11" id="SVGID_68_" patternTransform="matrix(-.01188 0 0 .01188 -8138.649 -7811.137)"/><path d="m35.665 17.557-.005-1.765a.222.222 0 0 0-.028-.115c.086-.004.145.061.146.177l.005 1.765a.55.55 0 0 1-.25.433c-.098.056-.182.04-.224-.028a.234.234 0 0 0 .106-.034.55.55 0 0 0 .25-.433z" style="fill:url(#SVGID_68_)"/><pattern xlink:href="#Unnamed_Pattern_8" id="SVGID_69_" patternTransform="matrix(-.01188 0 0 .01188 -8140.187 -7809.086)"/><path d="M33.988 16.604a.55.55 0 0 0-.25.433l.005 1.765c0 .16.113.223.252.143a.55.55 0 0 0 .25-.433l-.005-1.764c0-.16-.113-.223-.252-.144z" style="fill:url(#SVGID_69_)"/><pattern xlink:href="#Unnamed_Pattern_11" id="SVGID_70_" patternTransform="matrix(-.01188 0 0 .01188 -8140.187 -7810.244)"/><path d="m34.127 18.45-.005-1.764a.222.222 0 0 0-.028-.116c.086-.003.145.062.146.178l.005 1.765a.55.55 0 0 1-.25.432c-.098.057-.182.042-.224-.027a.234.234 0 0 0 .106-.035.55.55 0 0 0 .25-.432z" style="fill:url(#SVGID_70_)"/><pattern xlink:href="#Unnamed_Pattern_8" id="SVGID_71_" patternTransform="matrix(-.01188 0 0 .01188 -8141.725 -7808.192)"/><path d="M32.45 17.498a.55.55 0 0 0-.25.433l.005 1.765c0 .159.113.223.252.143s.25-.274.25-.433l-.005-1.764c0-.16-.113-.224-.252-.144z" style="fill:url(#SVGID_71_)"/><pattern xlink:href="#Unnamed_Pattern_11" id="SVGID_72_" patternTransform="matrix(-.01188 0 0 .01188 -8141.725 -7809.35)"/><path d="m32.589 19.344-.005-1.764a.222.222 0 0 0-.028-.116c.086-.004.145.062.146.178l.005 1.764a.55.55 0 0 1-.25.433c-.098.056-.182.041-.224-.028a.234.234 0 0 0 .106-.034.55.55 0 0 0 .25-.433z" style="fill:url(#SVGID_72_)"/><pattern xlink:href="#Unnamed_Pattern_8" id="SVGID_73_" patternTransform="matrix(-.01188 0 0 .01188 -8143.263 -7807.298)"/><path d="M30.912 18.392a.55.55 0 0 0-.25.433l.005 1.765c0 .159.113.223.252.143a.55.55 0 0 0 .25-.433l-.005-1.765c0-.159-.113-.223-.252-.143z" style="fill:url(#SVGID_73_)"/><pattern xlink:href="#Unnamed_Pattern_11" id="SVGID_74_" patternTransform="matrix(-.01188 0 0 .01188 -8143.263 -7808.456)"/><path d="m31.05 20.238-.004-1.764a.222.222 0 0 0-.028-.116c.086-.004.145.062.146.177l.005 1.765a.55.55 0 0 1-.25.433c-.098.056-.182.041-.224-.028a.234.234 0 0 0 .106-.034.55.55 0 0 0 .25-.433z" style="fill:url(#SVGID_74_)"/><pattern xlink:href="#Unnamed_Pattern_8" id="SVGID_75_" patternTransform="matrix(-.01188 0 0 .01188 -8144.8 -7806.405)"/><path d="M29.374 19.286a.55.55 0 0 0-.25.433l.005 1.765c0 .159.113.223.252.143a.55.55 0 0 0 .25-.433l-.005-1.765c0-.159-.113-.223-.252-.143z" style="fill:url(#SVGID_75_)"/><pattern xlink:href="#Unnamed_Pattern_11" id="SVGID_76_" patternTransform="matrix(-.01188 0 0 .01188 -8144.8 -7807.562)"/><path d="m29.513 21.132-.005-1.765a.222.222 0 0 0-.028-.115c.086-.004.145.062.146.177l.005 1.765a.55.55 0 0 1-.25.433c-.097.056-.182.041-.224-.028a.234.234 0 0 0 .106-.034.55.55 0 0 0 .25-.433z" style="fill:url(#SVGID_76_)"/><path d="M40.25 9.111c1.18.682 1.186 1.786.013 2.467l-13.078 7.6c-1.173.682-3.08.682-4.26 0l-13.164-7.6c-1.18-.68-1.185-1.785-.013-2.467l13.079-7.6c1.172-.681 3.078-.681 4.258 0l13.164 7.6z" class="st19"/><path d="M35.134 9.8c.522.3.525.789.006 1.09l-9.16 5.323c-.518.302-1.361.302-1.883 0l-9.22-5.322c-.522-.302-.525-.79-.006-1.092l9.16-5.323c.518-.301 1.362-.301 1.884 0l9.22 5.323z" class="st20"/><pattern xlink:href="#Unnamed_Pattern_12" id="SVGID_77_" patternTransform="translate(-7612.173 -7493.764) scale(.05283)"/><path d="M11.572 14.887c.258.15.466.51.465.806 0 .297-.21.417-.468.268a1.026 1.026 0 0 1-.466-.807c.001-.297.21-.416.469-.267z" style="fill:url(#SVGID_77_)"/><pattern xlink:href="#Unnamed_Pattern_12" id="SVGID_78_" patternTransform="translate(-7612.173 -7493.764) scale(.05283)"/><path d="M13.076 15.756c.258.149.467.51.466.806-.001.296-.211.416-.469.267a1.026 1.026 0 0 1-.465-.806c0-.297.21-.416.468-.267z" style="fill:url(#SVGID_78_)"/><pattern xlink:href="#Unnamed_Pattern_12" id="SVGID_79_" patternTransform="translate(-7612.173 -7493.764) scale(.05283)"/><path d="M14.58 16.625c.259.148.467.509.466.806 0 .296-.21.416-.468.267a1.026 1.026 0 0 1-.466-.807c0-.296.21-.415.469-.266z" style="fill:url(#SVGID_79_)"/><path d="m20.824 20.128-3.489-2.015v1.322l3.489 2.014z" class="st9"/></svg>