<svg xmlns="http://www.w3.org/2000/svg" width="224.757" height="116.342" viewBox="0 0 59.467 30.782"><path d="M774.19 23.718c13.253-.057 27.01.114 37.542.577l24.5 1.078 3.836 4.285c9.227 10.305 11.425 13.579 10.914 16.25-.285 1.49-2.434 4.191-5.027 6.319l-4.53 3.716-13.597.545v-.002c-18.27.732-86.423.755-102.465.034l-12.867-.578-3.383-3.916c-1.86-2.154-3.38-4.46-3.38-5.123 0-2.123 17.867-18.212 23.613-21.263 2.056-1.092 22.753-1.826 44.843-1.922z" style="fill:red;stroke-width:1.00000012" transform="matrix(.08568 0 0 .08568 -38.775 23.729)"/><path d="M875.898-92.232c.353-.007.646.059.871.198.559.345 3.242 3.304 5.965 6.576 5.637 6.773 5.436 3.813 1.961 28.9-8.19 59.144-12.32 84.366-14.306 87.399-.983 1.499-3.871 4.048-6.418 5.664-2.548 1.615-4.944 2.937-5.327 2.937-.382 0-4.168-3.712-8.414-8.25l-7.72-8.25.521-6.5c.752-9.36 2.844-25.37 9.15-70l3.323-23.5 6.595-6.127c5.915-5.494 11.33-9.002 13.8-9.047z" style="fill:red;fill-opacity:.15686275;stroke-width:1.00000012" transform="matrix(.08568 0 0 .08568 -38.775 23.729)"/><path d="M725.219-92.558c1.891 0 10.435 8.118 12.392 11.776 1.639 3.061-.827 23.551-7.85 65.224-.51 3.025-1.431 9.1-2.048 13.5s-1.831 11.102-2.696 14.893c-1.773 7.776-3.374 9.738-16.613 20.357-4.285 3.438-8.355 6.25-9.045 6.25-1.435 0-6.085-4.758-6.84-7-.521-1.548.99-16.285 3.641-35.5 7.125-51.647 9.462-67.695 10.49-72 .945-3.955 2.487-5.67 12.684-14.105 2.256-1.867 4.905-3.395 5.885-3.395zM751.11-115.058l51.544.229c48.478.215 51.694.34 54.06 2.09 3.636 2.687 10.005 11.351 10.012 13.617.004 1.993-10.118 12.214-15.494 15.643-2.857 1.822-5.509 1.914-55.56 1.918-40.528.002-52.926-.283-54.166-1.247-3.256-2.53-10.774-12.182-10.774-13.832 0-1.899 10.095-11.633 16.334-15.75z" style="fill:red;stroke-width:1.00000012" transform="matrix(.08568 0 0 .08568 -38.775 23.729)"/><path d="M900.183-234.558c1.21 0 3.29 1.166 4.623 2.59 2.147 2.293 2.405 3.411 2.24 9.75-.162 6.305-.967 13.247-4.306 37.16-4.619 33.077-6.162 43.8-6.98 48.5-.527 3.025-1.243 7.744-1.59 10.487-.922 7.274-2.65 9.862-11.037 16.527-4.143 3.292-8.078 5.986-8.744 5.986-2.216 0-5.296-2.83-9.112-8.369l-3.773-5.48 1.172-8.825a3197.82 3197.82 0 0 1 2.574-18.826c.771-5.5 2.336-17.2 3.476-26 1.141-8.8 3.06-22.241 4.264-29.869l2.191-13.869 4.526-4.287c8.624-8.17 18.288-15.475 20.476-15.475zM740.894-235.015c2.032.148 4.346 2.372 10.223 8.592l6.885 7.287-.637 8.967c-.35 4.932-1.06 11.7-1.576 15.039a954.366 954.366 0 0 0-2.025 14.072c-.598 4.4-1.526 10.7-2.063 14-.537 3.3-1.89 11.85-3.006 19a7469.963 7469.963 0 0 1-3.055 19.41c-1.566 9.809-3.693 12.785-14.886 20.84-2.484 1.788-5.148 3.25-5.922 3.25-1.638 0-8.7-7.353-10.565-11-1.067-2.088-.89-5.466 1.069-20.5 1.29-9.9 2.819-21.825 3.398-26.5.58-4.675 1.707-12.55 2.506-17.5.8-4.95 2.587-16.84 3.97-26.422 2.915-20.179 4.184-22.924 12.78-27.628 1.115-.61 1.98-.974 2.904-.907zM806.648-252.237c9.926.043 21.26.183 33.953.418l45.37.84 1.88 2.46a157.681 157.681 0 0 0 2.88 3.668c2.28 2.754.768 5.251-7.749 12.79-4.812 4.259-10.429 8.813-12.48 10.122l-3.73 2.381-49.27-.103c-27.099-.057-50.838-.47-52.754-.92-1.916-.45-4.556-2.093-5.865-3.649-1.31-1.555-4.017-4.628-6.016-6.828-4.023-4.426-6.046-7.44-6.1-9.084-.047-1.458 6.832-8.28 10.026-9.941 2.993-1.557 20.08-2.284 49.855-2.154z" style="fill:red;fill-opacity:.15686275;stroke-width:1.00000012" transform="matrix(.08568 0 0 .08568 -38.775 23.729)"/><path d="M989.048 24.003v.001c13.254-.057 27.01.113 37.543.577l24.5 1.078 3.836 4.285c9.227 10.305 11.425 13.578 10.914 16.25-.285 1.49-2.435 4.191-5.028 6.318l-4.529 3.717-13.598.545v-.002c-18.27.731-86.423.755-102.464.034l-12.868-.578-3.382-3.916c-1.86-2.154-3.381-4.46-3.381-5.123 0-2.123 17.867-18.213 23.613-21.264 2.056-1.092 22.753-1.826 44.844-1.922zM1090.757-91.946c.352-.007.646.058.87.197.56.346 3.242 3.304 5.966 6.577 5.636 6.773 5.435 3.813 1.96 28.9-8.19 59.143-12.32 84.366-14.306 87.398-.982 1.5-3.87 4.049-6.418 5.665-2.547 1.615-4.944 2.937-5.326 2.937-.383 0-4.168-3.712-8.414-8.25l-7.721-8.25.522-6.5c.751-9.36 2.843-25.37 9.15-70l3.322-23.5 6.596-6.127c5.915-5.495 11.33-9.002 13.799-9.047zM940.077-92.272c1.892 0 10.435 8.118 12.393 11.775 1.638 3.062-.827 23.552-7.85 65.225-.51 3.025-1.432 9.1-2.049 13.5s-1.83 11.102-2.695 14.893c-1.774 7.775-3.375 9.737-16.613 20.357-4.286 3.438-8.356 6.25-9.045 6.25-1.436 0-6.085-4.759-6.84-7-.522-1.549.99-16.286 3.64-35.5 7.126-51.648 9.463-67.696 10.49-72 .945-3.955 2.487-5.67 12.684-14.105 2.257-1.867 4.906-3.395 5.885-3.395z" style="fill:red;stroke-width:1.00000012" transform="matrix(.08568 0 0 .08568 -38.775 23.729)"/><path d="m965.968-114.772 51.545.229c48.478.215 51.693.34 54.06 2.09 3.635 2.686 10.004 11.35 10.012 13.617 0 1.993-10.119 12.214-15.494 15.642-2.857 1.823-5.51 1.914-55.56 1.918-40.528.003-52.927-.282-54.167-1.246-3.256-2.53-10.773-12.182-10.773-13.832 0-1.899 10.095-11.633 16.334-15.75z" style="fill:red;fill-opacity:.15686275;stroke-width:1.00000012" transform="matrix(.08568 0 0 .08568 -38.775 23.729)"/><path d="M1115.042-234.272c1.209 0 3.29 1.166 4.623 2.59 2.146 2.292 2.404 3.411 2.24 9.75-.163 6.305-.967 13.247-4.307 37.16-4.618 33.077-6.162 43.8-6.98 48.5-.527 3.025-1.242 7.744-1.59 10.486-.921 7.275-2.65 9.863-11.037 16.528-4.143 3.292-8.077 5.986-8.744 5.986-2.216 0-5.296-2.83-9.111-8.37l-3.774-5.48 1.172-8.824c.645-4.854 1.803-13.326 2.574-18.826.771-5.5 2.336-17.2 3.477-26 1.14-8.8 3.059-22.241 4.264-29.87l2.19-13.868 4.526-4.287c8.624-8.171 18.289-15.475 20.477-15.475zM955.753-234.729c2.031.147 4.346 2.371 10.222 8.592l6.885 7.287-.636 8.967c-.35 4.931-1.06 11.7-1.577 15.039a954.386 954.386 0 0 0-2.025 14.072c-.598 4.4-1.526 10.7-2.063 14-.536 3.3-1.889 11.85-3.005 19a7464.91 7464.91 0 0 1-3.055 19.41c-1.567 9.808-3.693 12.785-14.887 20.84-2.484 1.787-5.148 3.25-5.922 3.25-1.638 0-8.7-7.353-10.564-11-1.067-2.088-.89-5.466 1.068-20.5 1.29-9.9 2.82-21.825 3.399-26.5.579-4.675 1.706-12.55 2.505-17.5.8-4.95 2.587-16.84 3.971-26.422 2.915-20.179 4.184-22.924 12.78-27.629 1.115-.61 1.98-.973 2.904-.906zM1021.507-251.952c9.925.044 21.26.183 33.953.418l45.369.84 1.88 2.461a158.163 158.163 0 0 0 2.88 3.668c2.28 2.753.769 5.251-7.748 12.79-4.813 4.258-10.43 8.813-12.48 10.122l-3.731 2.381-49.27-.104c-27.098-.056-50.837-.469-52.754-.92-1.916-.45-4.556-2.092-5.865-3.648-1.31-1.556-4.016-4.628-6.016-6.828-4.022-4.427-6.045-7.44-6.1-9.084-.047-1.458 6.832-8.28 10.026-9.941 2.993-1.557 20.08-2.285 49.856-2.155zM559.045 24.29c13.254-.057 27.01.113 37.543.577l24.5 1.078 3.836 4.285c9.227 10.305 11.425 13.578 10.914 16.25-.285 1.49-2.434 4.19-5.027 6.318l-4.53 3.717-13.597.545v-.002c-18.27.731-86.423.754-102.465.034l-12.867-.578-3.383-3.916c-1.86-2.154-3.381-4.46-3.381-5.123 0-2.123 17.867-18.213 23.613-21.264 2.057-1.092 22.754-1.826 44.844-1.922z" style="fill:red;stroke-width:1.00000012" transform="matrix(.08568 0 0 .08568 -38.775 23.729)"/><path d="M660.754-91.66c.353-.008.646.058.871.197.558.345 3.242 3.304 5.965 6.576 5.636 6.773 5.435 3.813 1.96 28.9-8.19 59.144-12.319 84.367-14.306 87.4-.982 1.498-3.87 4.048-6.418 5.663-2.547 1.616-4.944 2.938-5.326 2.938-.382 0-4.168-3.713-8.414-8.25l-7.72-8.25.52-6.5c.752-9.36 2.845-25.37 9.151-70l3.322-23.5 6.596-6.127c5.915-5.495 11.33-9.002 13.799-9.047z" style="fill:red;fill-opacity:.15686275;stroke-width:1.00000012" transform="matrix(.08568 0 0 .08568 -38.775 23.729)"/><path d="M510.074-91.986c1.892 0 10.435 8.118 12.393 11.775 1.638 3.062-.827 23.552-7.85 65.225-.51 3.025-1.432 9.1-2.049 13.5s-1.83 11.101-2.695 14.892c-1.773 7.776-3.374 9.738-16.613 20.358-4.286 3.437-8.356 6.25-9.045 6.25-1.435 0-6.085-4.759-6.84-7-.522-1.549.99-16.286 3.64-35.5 7.126-51.648 9.463-67.696 10.49-72 .945-3.955 2.488-5.67 12.684-14.106 2.257-1.866 4.906-3.394 5.885-3.394z" style="fill:red;stroke-width:1.00000012" transform="matrix(.08568 0 0 .08568 -38.775 23.729)"/><path d="m535.965-114.486 51.545.229c48.478.215 51.694.34 54.06 2.09 3.636 2.686 10.005 11.35 10.012 13.617.004 1.993-10.119 12.214-15.494 15.642-2.857 1.822-5.51 1.914-55.56 1.918-40.528.003-52.927-.282-54.167-1.246-3.256-2.53-10.773-12.182-10.773-13.832 0-1.899 10.095-11.634 16.334-15.75zM685.04-233.986c1.208 0 3.289 1.165 4.622 2.59 2.146 2.292 2.404 3.41 2.24 9.75-.162 6.305-.967 13.247-4.306 37.16-4.62 33.077-6.162 43.8-6.98 48.5-.527 3.025-1.243 7.743-1.59 10.486-.922 7.275-2.65 9.863-11.038 16.528-4.143 3.292-8.077 5.986-8.744 5.986-2.215 0-5.296-2.83-9.111-8.37l-3.774-5.48 1.172-8.824c.645-4.854 1.803-13.326 2.575-18.826.77-5.5 2.335-17.2 3.476-26 1.14-8.8 3.059-22.241 4.264-29.87l2.191-13.868 4.526-4.288c8.623-8.17 18.288-15.474 20.476-15.474z" style="fill:red;fill-opacity:.15686275;stroke-width:1.00000012" transform="matrix(.08568 0 0 .08568 -38.775 23.729)"/><path d="M525.75-234.443c2.032.147 4.346 2.371 10.223 8.592l6.885 7.287-.637 8.967c-.35 4.931-1.06 11.699-1.576 15.039a954.517 954.517 0 0 0-2.026 14.072c-.598 4.4-1.526 10.7-2.062 14-.537 3.3-1.89 11.85-3.006 19a7469.41 7469.41 0 0 1-3.055 19.41c-1.567 9.808-3.693 12.785-14.887 20.84-2.484 1.787-5.148 3.25-5.921 3.25-1.639 0-8.7-7.353-10.565-11-1.067-2.088-.89-5.467 1.068-20.5 1.29-9.9 2.82-21.825 3.399-26.5.58-4.675 1.706-12.55 2.506-17.5.8-4.95 2.586-16.84 3.97-26.422 2.915-20.18 4.184-22.925 12.78-27.629 1.115-.61 1.98-.973 2.904-.906z" style="fill:red;stroke-width:1.00000012" transform="matrix(.08568 0 0 .08568 -38.775 23.729)"/><path d="M591.504-251.666c9.925.044 21.26.183 33.953.418l45.37.84 1.88 2.46a157.788 157.788 0 0 0 2.879 3.669c2.28 2.753.77 5.251-7.748 12.789-4.813 4.26-10.429 8.814-12.48 10.123l-3.731 2.38-49.27-.103c-27.098-.056-50.837-.47-52.753-.92-1.917-.45-4.556-2.092-5.866-3.648-1.309-1.556-4.016-4.628-6.015-6.828-4.023-4.427-6.046-7.44-6.1-9.084-.047-1.458 6.831-8.28 10.026-9.942 2.993-1.557 20.08-2.284 49.855-2.154z" style="fill:red;fill-opacity:.15686275;stroke-width:1.00000012" transform="matrix(.08568 0 0 .08568 -38.775 23.729)"/></svg>